<?xml version="1.0" encoding="UTF-8"?>
<!-- Generator: Adobe Illustrator 19.2.1, SVG Export Plug-In . SVG Version: 6.00 Build 0)  -->
<svg version="1.1" id="Layer_1" xmlns="http://www.w3.org/2000/svg" xmlns:xlink="http://www.w3.org/1999/xlink" x="0px" y="0px" viewBox="0 0 597.2 191.3" style="enable-background:new 0 0 597.2 191.3;" xml:space="preserve">
<style type="text/css">
	.st0{clip-path:url(#SVGID_2_);fill-rule:evenodd;clip-rule:evenodd;fill:#181516;}
	.st1{clip-path:url(#SVGID_2_);fill:#FFFFFF;}
	.st2{clip-path:url(#SVGID_2_);fill:#FFDD00;}
</style>
<g>
	<defs>
		<rect id="SVGID_1_" x="-93" y="-204.7" width="792" height="612"/>
	</defs>
	<clipPath id="SVGID_2_">
		<use xlink:href="#SVGID_1_" style="overflow:visible;"/>
	</clipPath>
	<path class="st0" d="M423.3,48.6c-1.7,0.9-3.6,1.7-5.3,2.6c-1.7,1-3.5,1.9-5.2,3c-1.2,0.8-2.1,1.4-3.3,2.2   c-6.9,4.8-17.2,15.1-21.4,22c-5.8,9.7-8.2,23-0.8,32.7c1.7,2.3,2.3,2.9,4.2,4.7l2.3,2c0.9,0.8,1.6,1.3,2.5,2c2.6,1.9,5.2,3.6,8,5.2   l8.6,4.8c3.3,1.8,7.9,4.5,10.1,7.7c1.5,2.1,1.9,3.8,1.1,6.8c-1,3.6-5,5.6-8.1,7.3l-3,1.5c-5.8,2.8-12,4.6-18.4,6.1   c-2.7,0.7-4.6,1.1-4.6,4.6c-6.6,1.5-4.1,5.5-2.5,10.2c0.7,2.1,1.3,3.8,2,5.9c0.7,2.1,1.3,4,2,5.9c2,6,4,4.6,10.3,2.8   c3.5-1,7.3-2.4,10.8-3.6c2.7-1,5-2,7.5-3.3c2.3-1.2,4.7-2.6,6.9-3.9c1.6-0.9,2.9-1.9,4.4-2.8c0.8-0.5,1.3-1,2.1-1.5   c1.4-1,2.8-2.3,4.1-3.3c3.1-2.3,10.3-10.3,12.3-13.1c4.3-5.7,8.1-13.2,8.1-21c0-6.3-0.4-9.8-3.1-15.4c-0.9-1.9-2.3-3.7-3.7-5.2   c-2.1-2.3-4.2-4.3-6.8-6.2c-0.8-0.6-1.4-0.9-2.2-1.4c-5.2-3.4-10.6-6.7-16.2-9.5c-3.8-1.9-12.1-6-9.6-11.2c1.7-3.5,4.5-5,7.8-6.9   c1.9-1.1,8.2-4.3,10.3-4.3c0.6,0,2.6,2.1,3.2,2.6c1.1,1,2.1,1.8,3.3,2.7c4.5,3.4,10,6.5,15.3,8.7c2.8,1.1,5.6,2.3,8.6,3.4   c6.1,2,12.1,3.6,19.2,4.8c18,3.1,38.8,2.8,56.6-1.1c2.9-0.6,5.6-1.2,8.2-2.1c2.6-0.8,5.3-1.6,7.7-2.6c4.9-1.8,9.6-4.1,14.1-6.5   l6.8-4.8c1.1,0,18.6-33.5,17.9-33.4c0-2.1-1.1-5.8-1.6-7.2c-1.5-3.8-3.7-7-6.2-10.1c-1.4-1.8-2.6-2.9-4.1-4.3   c-2.8-2.6-5.8-5.1-9.1-7.2c-1.8-1.1-3.3-2-5.2-3C558.2,9.8,545.2,5.9,532,4c-3.6-0.5-7.6-1.2-11.2-1.3c-4.1-0.1-8-0.5-12-0.5   l-11.6,0.6c-3.7,0.5-6.9,0.6-10.9,1.3c-2.4,0.4-4.7,0.8-7.1,1.3c-13.1,2.9-24.5,6.9-35.2,14c-2.5,1.6-4.9,3.2-7,5.3   c-0.4,0.4-0.6,0.7-1.1,1.1c-3.4,2.7-6.2,6.5-8.5,10.3C425.8,38.8,423.3,44.2,423.3,48.6 M260.9,44.7c-1.8,0-3.6,0.7-4.2,2.6   c-0.4,1.2-1.4,26.1-1.4,27.4c0,6.3-1,15.8-1,22.1c0,4.9-0.7,13.8-1,19.2c0,0.9,0,2,0,2.9c0,1.3-0.2,1.4-0.3,2.6c0,0.9,0,1.9,0,2.9   c0,1.2-0.2,1.3-0.3,2.6c0,1,0.1,2.1,0,3.1c-0.1,1.1-0.2,1.3-0.2,2.6c0,3.1-0.2,11.1-0.5,13.9c-0.5,4.5-0.2,12.5-0.8,16.5   c-0.5,3.2-0.4,13.5-0.8,16.5c-0.3,2.1-0.2,3.7,0.8,4.8c1.8,2.3,7.1,1.6,9.9,1.6l11.1,0.4c1.8,0.3,3.9,0.2,5.1-0.5   c1.4-0.8,1.8-2.1,2-4c6.2,0,3.7-6.3,4.5-11.6l0.3-16c0-1.4,0-2.7,0-4.1c0-1.5,0.3-2.1,0.3-3.8c0-2.5-0.2-5.8,0-8.2   c0.4-4.8,0.8-27.7,0.7-31.9c-0.1-4.2,1.1-1.1,3.9,1.9l3,3.3c2.4,3,5.1,5.8,7.6,8.7c0.3,0.4,0.6,0.6,1,1c0.5,0.5,0.5,0.7,1,1.2   l15.3,17.3c2,2,3.9,4.3,5.8,6.5c3,3.6,6.7,7.1,9.7,10.7l8.5,9.7c3.6,3.9,7.9,8.9,11.5,13c0.5,0.5,0.5,0.7,1,1.2   c4.8,5.1,2.8,4.5,8.7,7.6c1.6,0.8,3.3,0.7,5.1,0.9c0.9,0.1,0.9,0.2,1.9,0.2c3.3,0.1,4.8-1.4,4.8-4.6c4,0,4.6-2.2,4.6-6   c0-1.5,0-3,0-4.6c0-1.7,0.3-2.7,0.2-4.6c0-9.3,0.7-18.1,0.7-27.4c0-2.6,0.4-6.3,0.5-8.9c0.1-1.5-0.1-3.1,0-4.6l0.7-13.7   c0.2-2.8-0.1-6.4,0.3-9.1l1.3-26.7c0.3-2.9,0.1-6.1,0.3-9.1c0.2-3.2,0.7-10.2,0.7-13.2c0-1.9,0.2-3.1,0.2-4.6   c0.1-1.7,0.2-3.3-0.5-4.3c-0.5-0.8-1.7-1.9-2.9-1.9h-21.6c-2.6,0-3.8,2-3.8,4.6c-4.3,0-4.3,2.6-4.3,6.2c0,1.6-0.3,2.7-0.2,4.6   c0,1.7,0.1,3.4,0,5c0,1.5-0.2,2.7-0.2,4.6l-0.2,9.6c0,1.7,0.1,3.4,0,5l-0.2,9.6c0,1.8-0.3,2.7-0.2,4.6c0,1.7,0,3.4,0,5   c0,1.9-0.3,2.8-0.2,4.6c0,1.7,0,3.4,0,5.1c0,1.5-0.3,2.7-0.2,4.6c0,1.7,0,3.4,0,5c-0.8-0.3-1.7-1.7-2.3-2.5   c-0.4-0.5-0.8-0.7-1.2-1.2l-3.6-4.1c-0.5-0.6-0.6-0.7-1.1-1.3c-0.6-0.6-0.7-0.8-1.2-1.4l-21.2-24c-1.1-1.5-3.5-4-4.8-5.3   c-0.5-0.6-0.6-0.8-1.1-1.3c-2.3-2.6-4.8-5.2-7-7.9l-20.1-22.8c-0.4-0.5-0.8-0.7-1.2-1.2l-5.9-6.8c-0.4-0.5-0.8-0.7-1.2-1.2   c-3.8-4.2-2.8-3.2-12.7-3.2C262,40.2,260.9,42.5,260.9,44.7z M129.6,116.2c0-6.4-0.2-12.2-0.2-18.5c0-3.4,0.2-5.8,0.2-9.1   c0-3.1,0-6.3,0-9.4c0-1.5,0.3-2.5,0.2-4.3l0-9.4c0-1.9,0.3-2.7,0.2-4.6c0-3.1,0-6.2,0-9.4c0-3.1-0.9-5-4.3-5h-20.6   c-1.3,0-2.2,0.2-3,0.9c-1.1,1-1.4,2.2-1.4,3.7c-4.5,0-4.9,3.8-4.5,7.7c0.6,7,0.3,21.2,0.2,29.1c0,2,0.2,3.5,0.2,5.8l0.2,55.9   c0,1.4-0.2,1.7-0.3,3.1c-0.1,4.1,0.3,8.9-0.2,12.6c-0.4,2.9-0.1,6.4-0.1,9.3c0,4.8-1.9,11.3,4.3,11.3h20.4c2.8,0,4.1-2.1,4.1-4.6   c3.5,0,4.3-1.8,4.3-5l0-28.3c0.7,1,1.3,3.3,1.7,4.5c1.7,4.4,4.3,8.4,7.1,12.1c0.4,0.5,0.9,1.2,1.4,1.7c0.5,0.6,1,1,1.6,1.6   c10.9,12.4,32.9,20.7,49.6,20.7c17.2,0,26.8-0.6,42.9-5.1c2-0.5,5.6-1.1,6.9-2.9c0.8-1.1,0.6-1.8,0.9-2.4c0.5-0.9,2.8-0.4,3.8-2.6   c1-2,0.1-16.4,0.1-19.3c0-8.8-0.2-17.2-0.2-26.2c0-5.2,0.5-9.5,0.5-14.6c0-1.5-1.6-3.1-3.1-3.1h-22.6c-2.2,0-3.1,2.4-3.1,4.3   c-4.8,0-4.6,4.3-4.6,7.9c0,11.3,0.5,21.8,0.5,33.1c-2.9,0-6.2,0.5-9.4,0.5c-6.2,0-13.7-0.8-19.4-3.1c-7.1-2.9-8.3-3.7-14.3-8.3   c-1.1-0.8-1.4-1.4-2.2-2.4c-0.8-0.9-1.3-1.5-2-2.5c-8.5-12.6-4-29.3,4.9-39.8c0.4-0.4,0.6-0.6,0.9-1c1.8-2.2,4.3-4.2,6.5-5.9   c0.5-0.4,0.7-0.5,1.2-0.9c10.1-7.6,21.4-12.4,33.4-16.2c4.1-1.3,8.7-2.2,13.6-3c1.3-0.2,2.2-0.4,3.1-1c0.5-0.4,0.7-0.7,0.9-1.2   c1.1-2.3-0.4-2,1.6-2.5c0.7-0.1,1-0.2,1.6-0.6c3-2.2,1-6,0.1-9.8c-0.6-2.5-3.4-14.8-4.5-16.1c-2.3-2.9-6.1-0.7-11.2,0.7   c-2.7,0.8-5.5,1.7-8.2,2.6c-10.4,3.5-20.2,7.8-29.6,13.1c-2.3,1.3-4.4,2.6-6.6,3.9c-2.2,1.3-4.5,2.8-6.5,4.3c-2,1.5-4,3-5.9,4.6   l-5.7,5.1c-1.8,1.8-3.5,3.5-5.3,5.3c-3.6,3.5-6.8,7.5-9.7,11.7l-6.1,10c-0.6,1.1-1.2,2.3-1.7,3.5L129.6,116.2z M1.2,67.3   c0,7.3,3.2,16,8.1,20.9c14.2,14.1,23,15.5,39.1,26.2c3.7,2.5,9.5,7.7,9.5,12.6c0,5-0.9,9-4.6,12.2c-1,0.8-1.8,1.5-2.8,2.2   c-4.6,3.4-7.7,4.9-12.7,7.2c-8.3,3.9-13.5,5.2-22.2,7.4c-2.6,0.6-5.3,0.8-5.3,4.8C7.8,160.9,6,162.4,6,165c0,1,7.4,22.8,7.9,23.6   c2.1,3.2,6.6,0.8,10.4-0.3c5.4-1.5,8.6-2.9,13.6-4.6l6.6-2.8c8-4,15.8-8.3,22.8-13.9c1.5-1.2,3.6-2.9,4.9-4.2   c8.4-8.5,15-14.7,19.9-26.2c5.4-12.7,4.5-28.4-4.8-39.4c-2.3-2.7-4.6-4.9-7.4-7c-6-4.5-15.8-9.7-22.4-13.6l-7-3.8   c-4.5-2.4-12.1-7.4-12.1-13.1c0-3.3,2.3-7.8,4.7-10c0.8-0.7,1.6-1.4,2.5-2.1c4.8-3.8,12.2-7.5,18-9.6c5.8-2.1,8.8-2.4,14.7-3.5   c3-0.6,4.8-1,4.8-4.6c2.6-0.2,4.6-1.8,4.6-3.8c0-0.9-6.8-24-7.2-24.7C78.6-2.3,73.6,0,69.8,1c-2.3,0.6-4.6,1.3-6.8,2.1   c-9.1,3-11.5,4.5-18.7,8.2c-3.9,2-10.2,6.3-13.6,9c-5.4,4.1-11.5,10.5-16,15.4C7.3,43.6,1.2,56.4,1.2,67.3z"/>
	<path class="st1" d="M462.6,26.1c1.7,0,3.4,0.2,5.1,0.5c1.7,0.3,3.3,0.8,4.9,1.3c1.5,0.6,2.9,1.3,4.1,2.2c1.2,0.9,2.2,1.9,2.9,3   c0.7,1.1,1,2.4,1.1,3.8c0,1.3-0.4,2.6-1,3.7c-0.7,1.2-1.6,2.2-2.7,3.2c-1.1,0.9-2.4,1.8-3.8,2.5c-1.4,0.7-2.8,1.3-4.3,1.7   c-1.5,0.5-2.9,0.7-4.2,0.9v2.5c1.3,0,2.6,0.2,4.2,0.5c1.5,0.3,3,0.7,4.6,1.2c1.5,0.5,2.9,1.2,4.2,2.1c1.3,0.8,2.3,1.8,3.1,3   c0.8,1.2,1.2,2.5,1.2,4c0,1.6-0.4,3.1-1,4.5c-0.7,1.4-1.6,2.6-2.8,3.6c-1.2,1.1-2.6,2-4.1,2.7c-1.5,0.8-3.2,1.4-4.9,1.9   c-1.7,0.5-3.4,0.8-5.2,1c-1.7,0.2-3.4,0.2-4.9,0.1l0.5,6.9c3-0.1,6-0.5,9-1.3c3-0.7,5.7-1.8,8.4-3c2.6-1.3,4.9-2.8,7-4.5   c2-1.7,3.6-3.6,4.8-5.7c1.2-2.1,1.7-4.3,1.8-6.6c0-1.7-0.3-3.2-1-4.6c-0.6-1.3-1.5-2.5-2.6-3.5c-1.1-1-2.4-1.9-3.8-2.6   c-1.4-0.7-2.9-1.3-4.6-1.7v-0.2c1.1-0.5,2.2-1.2,3.3-2.1c1.2-0.9,2.3-2,3.3-3.2c1-1.2,1.9-2.5,2.5-4c0.6-1.4,1-2.9,1-4.4   c0-1.7-0.4-3.2-1.2-4.7c-0.8-1.4-1.8-2.7-3.1-3.9c-1.3-1.2-2.8-2.2-4.5-3.1c-1.7-0.9-3.4-1.7-5.3-2.3c-1.8-0.6-3.7-1.1-5.5-1.5   c-1.8-0.4-3.5-0.6-5.1-0.7L462.6,26.1z"/>
	<path class="st1" d="M500.1,62c0-1.8,0.1-3.4,0.2-4.8c0.2-1.4,0.4-2.8,0.7-4c0.3-1.2,0.7-2.5,1.2-3.6c1.9-0.1,3.8-0.1,5.6,0.3   c1.8,0.3,3.5,0.8,5.1,1.5c1.6,0.7,3,1.7,4.2,2.8c1.2,1.1,2.2,2.5,2.8,4c0.7,1.5,1,3.2,1,5.1c0,1.7-0.3,3.3-0.8,4.9   c-0.5,1.5-1.3,2.9-2.3,4.1c-1,1.2-2.2,2.1-3.6,2.8c-1.4,0.7-2.9,1-4.6,1c-1.9,0-3.6-0.6-5-1.7c-1.5-1.1-2.6-2.7-3.4-4.8   C500.5,67.4,500.1,64.9,500.1,62 M516.9,19.3c-2.2,1.6-4.5,3.6-6.8,6c-2.3,2.4-4.5,5-6.5,7.9c-2.1,2.9-3.9,6-5.5,9.2   c-1.6,3.2-2.9,6.6-3.8,10c-0.9,3.4-1.4,6.8-1.4,10.2c0,3.4,0.4,6.3,1.3,8.7c0.8,2.4,2.1,4.5,3.7,6.3c1.6,1.6,3.3,2.8,5.2,3.6   c1.9,0.7,4,1.1,6.4,1.1c1.9,0,3.9-0.3,5.8-1c1.9-0.6,3.7-1.6,5.3-2.8c1.7-1.2,3.1-2.7,4.4-4.4c1.3-1.7,2.3-3.6,3-5.7   c0.7-2.1,1.1-4.4,1.1-6.8c0-2.7-0.6-5.1-1.8-7.4c-1.2-2.2-2.9-4.1-5.1-5.7c-2.2-1.6-4.7-2.8-7.6-3.6c-2.9-0.8-6.1-1.2-9.5-1.1   c1-2.2,2.2-4.2,3.7-6.2c1.4-2,2.9-3.8,4.4-5.4c1.5-1.6,3-3,4.5-4.2c1.4-1.2,2.7-2.1,3.7-2.8L516.9,19.3z"/>
	<path class="st1" d="M543.2,27.8l21.2,0.2l0.1-7.4c-0.6,0-1.5,0.1-2.7,0.2c-1.2,0.1-2.5,0.1-4,0.2c-1.5,0.1-3.1,0.1-4.7,0.2   c-1.6,0.1-3.3,0.1-4.9,0.2c-1.6,0-3.1,0.1-4.5,0.1c-1.4,0-2.6,0.1-3.5,0.1c-1,0-1.6,0.1-2,0.1l-3.4,21.3c4.3,0.4,8.1,1.2,11.2,2.4   c3.1,1.2,5.5,2.7,7.2,4.6c1.7,1.9,2.5,4,2.5,6.5c0,1.8-0.4,3.6-1.1,5.2c-0.7,1.6-1.7,3.1-2.9,4.4c-1.2,1.4-2.6,2.6-4.1,3.7   c-1.5,1.1-3.2,2.1-4.9,2.9c-1.7,0.8-3.4,1.6-5.1,2.1c-1.7,0.6-3.3,1-4.8,1.3l1.8,6.6c2.2-0.5,4.4-1.2,6.7-2.2   c2.2-1,4.4-2.1,6.6-3.5c2.1-1.3,4.2-2.9,6-4.5c1.9-1.7,3.5-3.4,4.9-5.3c1.4-1.9,2.5-3.9,3.3-5.9c0.8-2,1.2-4.1,1.2-6.3   c0-1.4-0.2-2.8-0.5-4.3c-0.4-1.4-1-2.8-2-4.2c-0.9-1.4-2.2-2.7-3.9-3.9c-1.6-1.2-3.7-2.3-6.3-3.3c-2.5-1-5.6-1.8-9.2-2.4   L543.2,27.8z"/>
	<path class="st2" d="M269.7,44h0.7h2.3l1.6,1.8l22.6,25.6l23.7,26.9h0l24.7,28.1l0,0.1l11.4,13.4l0-0.2h0v-12.2l0-0.1l0.7-25.1h0   l0.6-24.4v0l0.6-22.5l0.1-5.1h5.1h10.7h5.5l-0.2,5.5l-1.5,32.3l-1.5,31.4h0l-1,25.8h0l-0.9,30.6l-0.2,5.5l-5.4-0.4l-0.4,0l-3.6-1.8   l-6.9-7.9l0,0l-6.9-7.8l0,0l-6.9-7.9l0,0l-22.8-25.5l0,0l-24.6-27.8l0,0l-7.9-9.1l-7.2-8.3l-1.9,88.4l-0.1,5.3l-5.2-0.1l-10.8-0.3   l-5.3-0.2l0.2-5.3L264.5,49l0.2-5H269.7z M390.9,91.9L390.9,91.9L390.9,91.9c0-2.2,0.3-4.4,0.9-6.7c0.1-0.6,0.2-0.9,0.3-1.1h0   c0.6-1.9,1.3-3.7,2.2-5.6l0,0l0,0v0c0.3-0.5,0.6-1.2,1-1.9c0.4-0.7,0.8-1.3,1.1-1.9c2-3.1,4.5-6.1,7.6-9l0,0c2.1-2,4.4-3.9,6.8-5.7   c2.5-1.8,5.1-3.5,7.9-5l0,0c2.9-1.6,5.9-3,9.2-4.3c3.2-1.3,6.7-2.4,10.3-3.4l4.9-1.3l1.4,4.9l2.7,9.2l1.6,5.5l-5.7,1   c-0.4,0.1-1.1,0.2-2,0.4c-0.6,0.1-1.2,0.3-1.8,0.4l0,0c-0.6,0.2-1.3,0.3-1.8,0.5c-0.8,0.3-1.5,0.5-2.2,0.7l0,0   c-1.3,0.4-2.6,0.9-3.8,1.5c-1.3,0.6-2.6,1.2-3.9,1.9l0,0l0,0c-0.6,0.3-1.2,0.7-2,1.2c-0.7,0.4-1.3,0.8-1.9,1.2   c-3.1,2-5.7,4.3-7.8,6.8l0,0c-1.3,1.6-2.3,3.1-3,4.7c-0.5,1.2-0.8,2.5-0.8,3.7c0.1,0.9,0.3,1.8,0.6,2.5c0.3,0.8,0.7,1.6,1.2,2.3   l0,0l0,0c0.1,0.2,0.3,0.3,0.4,0.5c0.2,0.2,0.4,0.4,0.6,0.7c1.4,1.4,3.5,2.9,6.3,4.6l0,0c3.9,2.1,7.6,4.1,10.9,6.1   c3.4,2,6.1,3.6,8.1,4.9l0,0c0.6,0.3,1,0.6,1.5,0.9c0.6,0.4,1.2,0.8,1.6,1.1c2.7,2,5,4.4,6.9,7l0,0c0.4,0.6,0.8,1.1,1.1,1.7   c0.3,0.5,0.6,1.1,0.9,1.8h0c1.4,3.1,2.1,6.5,2.1,10.3c0,3-0.4,5.9-1.2,8.8c-0.8,2.8-2,5.5-3.7,8.2c-1.6,2.6-3.3,5-5.3,7.2   c-2,2.2-4.2,4.4-6.7,6.3h0c-1.1,0.9-2.3,1.7-3.4,2.5c-1.3,0.9-2.5,1.7-3.7,2.4c-1.3,0.8-2.7,1.6-4.1,2.4c-1.4,0.8-2.9,1.5-4.5,2.4   l-0.2,0.1c-2.4,1.1-5,2.2-7.9,3.2c-2.7,1-5.6,1.9-8.7,2.8l-4.8,1.4l-1.6-4.7l-2.9-8.6l-1.8-5.4l5.5-1.3l0,0v0   c0.7-0.2,1.4-0.3,2.1-0.5c1.1-0.3,1.8-0.5,2.1-0.6c3.6-1.1,7.4-2.5,11.2-4.3c2.5-1.2,4.9-2.5,7.1-4c2.2-1.5,4.2-3.2,6.1-5l0,0   c1.6-1.6,2.8-3.3,3.6-5c0.7-1.6,1.1-3.4,1.1-5.4v0h0c0-1-0.1-1.9-0.4-2.8c0,0-0.1-0.2-0.1-0.4c-0.2-0.7-0.6-1.4-1-2l0,0l0,0l0,0   c-0.2-0.3-0.4-0.6-0.5-0.8c-0.2-0.3-0.4-0.6-0.6-0.8c-1.1-1.3-2.3-2.5-3.7-3.5l0,0c-0.3-0.2-0.7-0.5-1.5-1   c-0.7-0.5-1.3-0.9-1.7-1.1l-0.1,0c-0.3-0.2-1-0.6-1.9-1.2c-1.1-0.7-1.8-1.1-2.2-1.3l0,0l-8.4-4.7l0,0c-2.8-1.6-5.3-3.2-7.5-4.8   c-2.3-1.6-4.2-3.3-6-5.1l0,0l0,0l0,0l0,0c-0.2-0.2-0.5-0.5-0.8-0.8c-0.3-0.3-0.6-0.6-0.8-0.9c-1.3-1.5-2.3-3.2-3.2-5.1l-0.1-0.3   c-0.5-1.4-1-2.8-1.2-4.2C391,94.8,390.9,93.4,390.9,91.9L390.9,91.9z M225.9,67.3c-3.1,0.5-6.3,1.3-9.6,2.3   c-3.5,1-7.1,2.3-10.8,3.8l0,0c-3.8,1.5-7.3,3.1-10.3,4.6c-3,1.5-5.8,3.1-8.3,4.7l0,0c-1.3,0.9-2.4,1.6-3.4,2.4   c-0.9,0.7-2,1.5-3.2,2.4c-5.4,4.2-9.9,8.7-13.5,13.3c-2.4,3.1-4.4,6.4-5.9,9.9c-1.5,3.4-2.5,7-3.1,10.8l-0.3,4.8h0   c0,3.3,0.4,6.4,1.3,9.3c0.9,2.9,2.2,5.7,4,8.3h0l0,0c0.5,0.7,1.1,1.5,1.6,2.1c0.5,0.7,1.2,1.3,1.8,2c3.3,3.4,7.5,6.3,12.7,8.7v0   l5.7,2.2l6,1.5c1.1,0.2,2.1,0.4,3.1,0.5c1.2,0.2,2.3,0.3,3.3,0.4l7,0.3c1.4,0,3-0.1,4.7-0.2c1.7-0.1,3.3-0.3,4.9-0.5l0,0l0,0   c0.1,0,0.1,0,0.8-0.1c1.8-0.3-0.8,0.1,0.7-0.1h0c1.1-0.2,2.4-0.4,3.7-0.7l0.1,0c1-0.2,1.7-0.3,2.4-0.4l-0.2-18.2h0l-0.3-11.3l0-0.1   v-9.1v-5.2h5.2h10.7h5.5l-0.3,5.5l-0.2,3.4h0l-0.2,3.3h0v3.7h0v3.9l0.3,17.4l0.3,16.8l0.1,3.9l-3.7,1.2c-5.7,1.8-11.5,3.1-17.3,4   c-5.8,0.9-11.7,1.3-17.7,1.3h-8.4h0v0c-2,0-3.9-0.1-5.7-0.3c-0.7-0.1-1.3-0.2-1.9-0.2c-1.1-0.2-2.3-0.4-3.6-0.7h0   c-0.9-0.2-1.7-0.4-2.4-0.6c-0.9-0.2-1.8-0.5-2.7-0.7l0,0c-1.1-0.3-2.1-0.6-2.9-0.9c-0.8-0.3-1.8-0.6-3.1-1.1l0,0   c-3.6-1.2-6.9-2.7-10-4.4c-3.2-1.7-6.1-3.6-8.9-5.8l0,0c-2.8-2.2-5.4-4.7-7.6-7.4c-2.2-2.7-4.1-5.7-5.7-8.9l0,0h0   c-0.4-0.9-0.9-1.8-1.3-2.8c-0.4-0.9-0.7-1.8-1.1-2.9c-1.7-5-2.5-10.3-2.5-15.9h0c0-1.2,0-2.4,0.1-3.5c0.1-1,0.2-2.3,0.4-3.8l0,0   l0,0v0c0.1-0.9,0.2-1.7,0.4-2.6c0.1-0.8,0.3-1.7,0.5-2.6c1-4.3,2.7-8.6,5-12.9c0.8-1.5,1.6-3,2.4-4.4c0.9-1.5,1.8-3,2.8-4.4v0   c0.4-0.6,1.1-1.5,1.9-2.6c0.8-1.1,1.4-1.9,2-2.6l0,0l0.4-0.4v0l0.4-0.5h0c1-1.3,1.7-2,1.8-2.3l0.1-0.1c2.2-2.5,4.6-4.9,7.3-7.3   c2.7-2.4,5.5-4.7,8.5-6.9l0.1-0.1l0,0c2-1.4,4.1-2.8,6.4-4.2c2.3-1.4,4.5-2.7,6.7-3.9c11.6-6.4,24.4-11.6,38.2-15.5l5.1-1.4   l1.3,5.2l2.5,9.8l1.4,5.5L225.9,67.3z M120.6,177.5h-10.9h-5.3l0.1-5.3l0.3-16.4h0l0.3-21l-0.3-36.9l-0.3-42.1l0-5.3h5.2h11.3h5.3   l-0.1,5.3l-0.2,9.9l-0.2,15.4l-0.2,15.4l0.2,34.2l0,0v41.6l0,5.2H120.6z M9.4,62.7c0-2.8,0.4-5.6,1.2-8.6c0.7-2.8,1.9-5.7,3.3-8.7   l0,0l0,0v0c0.4-0.7,0.8-1.5,1.3-2.4c0.5-0.9,1-1.7,1.5-2.4c2.6-4.1,6-8,10-11.8l0,0c2.8-2.7,5.8-5.2,9-7.5   c3.2-2.4,6.8-4.6,10.5-6.7l0,0c3.8-2.1,7.8-4,12.2-5.7c4.3-1.7,8.9-3.2,13.7-4.5L77.1,3l1.4,4.9l3.6,12.4l1.6,5.5l-5.7,1   c-0.7,0.1-1.7,0.3-2.8,0.6c-0.8,0.2-1.7,0.4-2.5,0.6l0,0c-0.9,0.2-1.7,0.5-2.6,0.7c-1.1,0.3-2.1,0.7-3,1l0,0   c-1.8,0.6-3.6,1.3-5.3,2.1c-1.8,0.8-3.6,1.7-5.3,2.6l0,0l0,0c-0.8,0.4-1.8,1-2.8,1.6c-0.9,0.5-1.8,1.1-2.6,1.6   c-4.3,2.9-8,6-10.9,9.5l0,0c-1.9,2.3-3.3,4.5-4.3,6.7c-0.8,1.9-1.2,3.9-1.3,5.8c0.2,1.4,0.5,2.8,0.9,4c0.5,1.3,1.1,2.4,1.9,3.5l0,0   l0,0c0.2,0.3,0.4,0.6,0.7,0.9c0.3,0.3,0.6,0.6,0.9,1c2,2,5,4.1,8.9,6.5l0,0c5.4,2.9,10.3,5.6,14.7,8.2c4.5,2.6,8.1,4.8,10.8,6.6   l0,0c0.7,0.4,1.4,0.9,2,1.2c0.8,0.5,1.5,1,2.1,1.5c3.5,2.6,6.5,5.6,8.9,9l0,0c0.5,0.7,1,1.4,1.4,2.2c0.4,0.6,0.8,1.4,1.1,2.3   c1.8,4,2.7,8.3,2.7,13.1h0c0,3.9-0.5,7.7-1.6,11.4c-1,3.6-2.6,7.2-4.7,10.7c-2.1,3.4-4.4,6.5-7,9.5c-2.6,2.9-5.6,5.7-8.9,8.3h0   c-1.5,1.2-3,2.3-4.5,3.4c-1.7,1.1-3.3,2.2-4.9,3.2c-1.7,1.1-3.6,2.1-5.5,3.2c-1.8,1-3.8,2.1-6,3.2l-0.2,0.1   c-3.2,1.5-6.7,2.9-10.4,4.3c-3.6,1.3-7.5,2.6-11.6,3.8l-4.8,1.4l-1.6-4.7l-3.9-11.5l-1.8-5.4l5.5-1.3l0,0v0   c0.9-0.2,1.9-0.5,2.9-0.7h0c1.3-0.3,2.2-0.6,2.9-0.8c5-1.5,10.1-3.5,15.4-5.9c3.5-1.6,6.8-3.5,9.8-5.6c3-2.1,5.8-4.4,8.4-7l0,0   c2.4-2.3,4.1-4.8,5.3-7.3c1.1-2.5,1.7-5.1,1.7-8h0v0h0c0-1.5-0.2-2.9-0.6-4.3c0-0.1-0.1-0.3-0.2-0.7c-0.4-1.1-0.9-2.1-1.5-3.1l0,0   l0,0l0,0c-0.3-0.4-0.5-0.8-0.8-1.1c-0.3-0.4-0.6-0.8-0.8-1.1c-1.5-1.9-3.3-3.6-5.3-5.1l0,0c-0.4-0.3-1.1-0.8-2-1.4   c-0.9-0.6-1.7-1.2-2.4-1.6l-0.1,0c-0.6-0.4-1.5-0.9-2.6-1.6c-1.4-0.9-2.3-1.4-3-1.8l0,0l-11.3-6.3l0,0c-3.7-2.1-7-4.2-9.9-6.3   c-3-2.2-5.6-4.4-7.8-6.6l0,0l0,0l0,0l0,0c-0.3-0.3-0.6-0.6-1-1c-0.4-0.4-0.7-0.8-1-1.1c-1.6-2-2.9-4.1-4-6.5l-0.1-0.3   c-0.7-1.8-1.2-3.6-1.6-5.3C9.6,66.3,9.4,64.5,9.4,62.7z"/>
	<path class="st0" d="M595.9,51.3c0,13.9-10.1,26.5-26.4,35.4c-9.5,5.2-4.7-25.2-3.1-48.2c1-14.7-4.7-26.7,1.3-23.6   C585,23.9,595.9,36.9,595.9,51.3z"/>
</g>
</svg>